<svg width="64" height="64" viewBox="0 0 64 64" fill="none" xmlns="http://www.w3.org/2000/svg">
<path fill-rule="evenodd" clip-rule="evenodd" d="M13.9938 35.0996C15.833 33.2904 18.2197 32 20.7771 32C21.649 32 22.3974 32.4139 22.9881 32.9933C23.5744 33.5683 24.0566 34.3512 24.4399 35.24C25.2081 37.0211 25.6585 39.4118 25.6585 42C25.6585 44.5882 25.2081 46.9789 24.4399 48.76C24.0566 49.6488 23.5744 50.4317 22.9881 51.0067C22.3974 51.5861 21.649 52 20.7771 52C16.4569 52 13.4913 50.8305 11.7584 48.8451C10.0193 46.8525 9.70427 44.2488 10.2346 41.7892C10.7642 39.3336 12.1505 36.9129 13.9938 35.0996ZM17.5958 49.7243C15.4859 49.3174 14.1108 48.4988 13.2652 47.5299C12.0585 46.1475 11.7497 44.2512 12.1897 42.2108C12.6306 40.1664 13.8088 38.0871 15.3963 36.5254C15.9524 35.9784 16.5474 35.5054 17.1663 35.1214C17.1488 35.1607 17.1314 35.2003 17.1143 35.24C16.3462 37.0211 15.8957 39.4118 15.8957 42C15.8957 44.5882 16.3462 46.9789 17.1143 48.76C17.2604 49.0987 17.4208 49.422 17.5958 49.7243ZM20.7771 34C20.5771 34 20.3045 34.0897 19.9665 34.4212C19.6241 34.7571 19.2698 35.2922 18.9508 36.0321C18.3141 37.5083 17.8957 39.6176 17.8957 42C17.8957 44.3824 18.3141 46.4917 18.9508 47.9679C19.2698 48.7078 19.6241 49.2429 19.9665 49.5788C20.3045 49.9103 20.5771 50 20.7771 50C20.9771 50 21.2498 49.9103 21.5877 49.5788C21.9302 49.2429 22.2844 48.7078 22.6034 47.9679C23.2401 46.4917 23.6585 44.3824 23.6585 42C23.6585 39.6176 23.2401 37.5083 22.6034 36.0321C22.2844 35.2922 21.9302 34.7571 21.5877 34.4212C21.2498 34.0897 20.9771 34 20.7771 34ZM19.7561 38C19.7561 37.4477 20.2038 37 20.7561 37C21.4748 37 21.8603 37.5689 22.0021 37.8148C22.1867 38.1349 22.3192 38.5315 22.4175 38.9346C22.6179 39.7564 22.7317 40.8398 22.7317 42C22.7317 43.1602 22.6179 44.2436 22.4175 45.0654C22.3192 45.4685 22.1867 45.8651 22.0021 46.1852C21.8603 46.4311 21.4748 47 20.7561 47C20.2038 47 19.7561 46.5523 19.7561 46C19.7561 45.6079 19.9817 45.2685 20.3103 45.1046C20.3566 45.0008 20.4154 44.8337 20.4744 44.5915C20.6271 43.9656 20.7317 43.0489 20.7317 42C20.7317 40.9511 20.6271 40.0344 20.4744 39.4085C20.4154 39.1663 20.3566 38.9992 20.3103 38.8954C19.9817 38.7315 19.7561 38.3921 19.7561 38ZM20.2418 38.7722C20.2418 38.7722 20.2479 38.7781 20.2592 38.7964C20.2474 38.7824 20.2418 38.7722 20.2418 38.7722ZM20.2418 45.2278C20.2418 45.2278 20.2474 45.2177 20.2592 45.2036C20.2479 45.2219 20.2418 45.2278 20.2418 45.2278Z" fill="black"/>
<path fill-rule="evenodd" clip-rule="evenodd" d="M49.6648 35.0996C47.8256 33.2904 45.4389 32 42.8814 32C42.0096 32 41.2612 32.4139 40.6704 32.9933C40.0841 33.5683 39.6019 34.3512 39.2186 35.24C38.4505 37.0211 38 39.4118 38 42C38 44.5882 38.4505 46.9789 39.2186 48.76C39.6019 49.6488 40.0841 50.4317 40.6704 51.0067C41.2612 51.5861 42.0096 52 42.8814 52C47.2017 52 50.1673 50.8305 51.9002 48.8451C53.6393 46.8525 53.9543 44.2488 53.4239 41.7892C52.8944 39.3336 51.5081 36.9129 49.6648 35.0996ZM46.0627 49.7243C48.1727 49.3174 49.5478 48.4988 50.3934 47.5299C51.6 46.1475 51.9088 44.2512 51.4688 42.2108C51.028 40.1664 49.8498 38.0871 48.2622 36.5254C47.7061 35.9784 47.1112 35.5054 46.4922 35.1214C46.5098 35.1607 46.5271 35.2003 46.5443 35.24C47.3124 37.0211 47.7629 39.4118 47.7629 42C47.7629 44.5882 47.3124 46.9789 46.5443 48.76C46.3982 49.0987 46.2378 49.422 46.0627 49.7243ZM42.8814 34C43.0814 34 43.3541 34.0897 43.6921 34.4212C44.0345 34.7571 44.3887 35.2922 44.7078 36.0321C45.3444 37.5083 45.7629 39.6176 45.7629 42C45.7629 44.3824 45.3444 46.4917 44.7078 47.9679C44.3887 48.7078 44.0345 49.2429 43.6921 49.5788C43.3541 49.9103 43.0814 50 42.8814 50C42.6814 50 42.4088 49.9103 42.0708 49.5788C41.7284 49.2429 41.3742 48.7078 41.0551 47.9679C40.4184 46.4917 40 44.3824 40 42C40 39.6176 40.4184 37.5083 41.0551 36.0321C41.3742 35.2922 41.7284 34.7571 42.0708 34.4212C42.4088 34.0897 42.6814 34 42.8814 34ZM43.9024 38C43.9024 37.4477 43.4547 37 42.9024 37C42.1837 37 41.7982 37.5689 41.6564 37.8148C41.4718 38.1349 41.3394 38.5315 41.2411 38.9346C41.0406 39.7564 40.9268 40.8398 40.9268 42C40.9268 43.1602 41.0406 44.2436 41.2411 45.0654C41.3394 45.4685 41.4718 45.8651 41.6564 46.1852C41.7982 46.4311 42.1837 47 42.9024 47C43.4547 47 43.9024 46.5523 43.9024 46C43.9024 45.6079 43.6768 45.2685 43.3483 45.1046C43.302 45.0008 43.2432 44.8337 43.1841 44.5915C43.0315 43.9656 42.9268 43.0489 42.9268 42C42.9268 40.9511 43.0315 40.0344 43.1841 39.4085C43.2432 39.1663 43.302 38.9992 43.3483 38.8954C43.6768 38.7315 43.9024 38.3921 43.9024 38ZM43.4167 38.7722C43.4167 38.7722 43.4107 38.7781 43.3994 38.7964C43.4112 38.7824 43.4167 38.7722 43.4167 38.7722ZM43.4167 45.2278C43.4167 45.2278 43.4112 45.2177 43.3994 45.2036C43.4107 45.2219 43.4167 45.2278 43.4167 45.2278Z" fill="black"/>
<path fill-rule="evenodd" clip-rule="evenodd" d="M32 14C24.268 14 18 20.268 18 28V34C18 34.5523 17.5523 35 17 35C16.4477 35 16 34.5523 16 34V28C16 19.1634 23.1634 12 32 12C40.8366 12 48 19.1634 48 28V34C48 34.5523 47.5523 35 47 35C46.4477 35 46 34.5523 46 34V28C46 20.268 39.732 14 32 14ZM32 17C25.9249 17 21 21.9249 21 28V33C21 33.5523 20.5523 34 20 34C19.4477 34 19 33.5523 19 33V28C19 20.8203 24.8203 15 32 15C39.1797 15 45 20.8203 45 28V32C45 32.5523 44.5523 33 44 33C43.4477 33 43 32.5523 43 32V28C43 21.9249 38.0751 17 32 17Z" fill="black"/>
</svg>
